<mxfile host="app.diagrams.net" agent="Mozilla/5.0 (Windows NT 10.0; Win64; x64) AppleWebKit/537.36 (KHTML, like Gecko) Chrome/128.0.0.0 Safari/537.36 Edg/128.0.0.0" version="24.7.12">
  <diagram name="Seite-1" id="Pt8vqdRthp-Q4FBs9JvU">
    <mxGraphModel dx="1661" dy="653" grid="1" gridSize="10" guides="1" tooltips="1" connect="1" arrows="1" fold="1" page="1" pageScale="1" pageWidth="827" pageHeight="1169" math="0" shadow="0">
      <root>
        <mxCell id="0" />
        <mxCell id="1" parent="0" />
        <UserObject label="&lt;b style=&quot;font-weight:normal;&quot; id=&quot;docs-internal-guid-2fefc4d0-7fff-ceb1-37e3-2f2b5a5cfb0d&quot;&gt;&lt;img width=&quot;873px;&quot; height=&quot;418px;&quot; src=&quot;https://lh7-rt.googleusercontent.com/slidesz/AGV_vUfZOSkFTLnWZSj28avsmarb48sdEd4jmauHUre7i7x7b2lYfgTQddrByQNSKs9R_krVTn6PUm8Ga85GVf455cquJ1vIQOzT8y86RhY8wc-n1CjTMn6wR34KyWJwtrkKSwGkzzbicum5EIMLcv8lt4s0ieTIrVLJddxukScwFe1dag=s2048?key=fMP8I7ahaaZuH46g_kk2iw&quot;&gt;&lt;/b&gt;" link="&lt;b style=&quot;font-weight:normal;&quot; id=&quot;docs-internal-guid-2fefc4d0-7fff-ceb1-37e3-2f2b5a5cfb0d&quot;&gt;&lt;img width=&quot;873px;&quot; height=&quot;418px;&quot; src=&quot;https://lh7-rt.googleusercontent.com/slidesz/AGV_vUfZOSkFTLnWZSj28avsmarb48sdEd4jmauHUre7i7x7b2lYfgTQddrByQNSKs9R_krVTn6PUm8Ga85GVf455cquJ1vIQOzT8y86RhY8wc-n1CjTMn6wR34KyWJwtrkKSwGkzzbicum5EIMLcv8lt4s0ieTIrVLJddxukScwFe1dag=s2048?key=fMP8I7ahaaZuH46g_kk2iw&quot;&gt;&lt;/b&gt;" id="P2-b-sgp65ouoSlKTeRA-1">
          <mxCell style="text;whiteSpace=wrap;html=1;" vertex="1" parent="1">
            <mxGeometry x="230" y="320" width="560" height="440" as="geometry" />
          </mxCell>
        </UserObject>
        <mxCell id="P2-b-sgp65ouoSlKTeRA-2" value="&lt;font style=&quot;font-size: 6px;&quot;&gt;Mapping von Artikeln zu Artikel Vektoren (Vorher berechnet durch verschiedene Modelle)&lt;/font&gt;" style="text;html=1;align=center;verticalAlign=middle;whiteSpace=wrap;rounded=0;fontColor=#007FFF;" vertex="1" parent="1">
          <mxGeometry x="120" y="362" width="110" height="30" as="geometry" />
        </mxCell>
        <mxCell id="P2-b-sgp65ouoSlKTeRA-4" value="&lt;font style=&quot;font-size: 6px;&quot;&gt;Selbsterstelltes Embedding für den Saisonschlüssel&lt;/font&gt;" style="text;html=1;align=center;verticalAlign=middle;whiteSpace=wrap;rounded=0;fontColor=#007FFF;" vertex="1" parent="1">
          <mxGeometry x="370" y="390" width="160" height="30" as="geometry" />
        </mxCell>
        <mxCell id="P2-b-sgp65ouoSlKTeRA-5" value="&lt;font style=&quot;font-size: 6px;&quot;&gt;Saisonschlüssel (Herbst/Winter oder Frühling/Sommer)&lt;/font&gt;" style="text;html=1;align=center;verticalAlign=middle;whiteSpace=wrap;rounded=0;fontColor=#007FFF;" vertex="1" parent="1">
          <mxGeometry x="450" y="350" width="160" height="30" as="geometry" />
        </mxCell>
        <mxCell id="P2-b-sgp65ouoSlKTeRA-6" value="&lt;font style=&quot;font-size: 6px;&quot;&gt;Artikeltypen (Pumps/Schnürer/Sneaker, hier Id)&lt;/font&gt;" style="text;html=1;align=center;verticalAlign=middle;whiteSpace=wrap;rounded=0;fontColor=#007FFF;" vertex="1" parent="1">
          <mxGeometry x="610" y="350" width="160" height="30" as="geometry" />
        </mxCell>
        <mxCell id="P2-b-sgp65ouoSlKTeRA-7" value="&lt;font style=&quot;font-size: 6px;&quot;&gt;Selbsterstelltes Embedding für Artikeltypen&lt;/font&gt;" style="text;html=1;align=center;verticalAlign=middle;whiteSpace=wrap;rounded=0;fontColor=#007FFF;" vertex="1" parent="1">
          <mxGeometry x="680" y="390" width="160" height="30" as="geometry" />
        </mxCell>
        <mxCell id="P2-b-sgp65ouoSlKTeRA-9" value="&lt;span style=&quot;font-size: 6px;&quot;&gt;Kunden Id&lt;/span&gt;" style="text;html=1;align=center;verticalAlign=middle;whiteSpace=wrap;rounded=0;fontColor=#007FFF;" vertex="1" parent="1">
          <mxGeometry x="770" y="435" width="160" height="30" as="geometry" />
        </mxCell>
        <mxCell id="P2-b-sgp65ouoSlKTeRA-10" value="&lt;span style=&quot;font-size: 6px;&quot;&gt;Marken Id (Caprice, Tamaris, Marco Tozzi)&lt;/span&gt;" style="text;html=1;align=center;verticalAlign=middle;whiteSpace=wrap;rounded=0;fontColor=#007FFF;" vertex="1" parent="1">
          <mxGeometry x="940" y="435" width="160" height="30" as="geometry" />
        </mxCell>
        <mxCell id="P2-b-sgp65ouoSlKTeRA-12" value="&lt;span style=&quot;font-size: 6px;&quot;&gt;Selbsterstelltes Kundenembedding&lt;/span&gt;" style="text;html=1;align=center;verticalAlign=middle;whiteSpace=wrap;rounded=0;fontColor=#007FFF;" vertex="1" parent="1">
          <mxGeometry x="720" y="480" width="160" height="30" as="geometry" />
        </mxCell>
        <mxCell id="P2-b-sgp65ouoSlKTeRA-13" value="&lt;span style=&quot;font-size: 6px;&quot;&gt;Selbsterstelltes Markenembedding&lt;/span&gt;" style="text;html=1;align=center;verticalAlign=middle;whiteSpace=wrap;rounded=0;fontColor=#007FFF;" vertex="1" parent="1">
          <mxGeometry x="890" y="480" width="160" height="30" as="geometry" />
        </mxCell>
        <mxCell id="P2-b-sgp65ouoSlKTeRA-14" value="&lt;span style=&quot;font-size: 6px;&quot;&gt;Deep Layer zum verarbeiten von visuellen Features&lt;/span&gt;" style="text;html=1;align=center;verticalAlign=middle;whiteSpace=wrap;rounded=0;fontColor=#007FFF;" vertex="1" parent="1">
          <mxGeometry x="180" y="392" width="160" height="30" as="geometry" />
        </mxCell>
        <mxCell id="P2-b-sgp65ouoSlKTeRA-15" value="&lt;span style=&quot;font-size: 6px;&quot;&gt;Kombinierte Schichten werden hier mit einem Skalarprodukt kombiniert&lt;/span&gt;" style="text;html=1;align=center;verticalAlign=middle;whiteSpace=wrap;rounded=0;fontColor=#007FFF;" vertex="1" parent="1">
          <mxGeometry x="520" y="670" width="160" height="30" as="geometry" />
        </mxCell>
        <mxCell id="P2-b-sgp65ouoSlKTeRA-16" value="&lt;span style=&quot;font-size: 6px;&quot;&gt;Outputlayer, mit der Aktivierungsfunktion Sigmoid, führt zu Ergebnissen von 0 bis 1 (0 = Kunde kauft den Artikel nicht, 1= Kunde kauft den Artikel)&lt;/span&gt;" style="text;html=1;align=center;verticalAlign=middle;whiteSpace=wrap;rounded=0;fontColor=#007FFF;" vertex="1" parent="1">
          <mxGeometry x="672.5" y="740" width="175" height="46" as="geometry" />
        </mxCell>
        <mxCell id="P2-b-sgp65ouoSlKTeRA-17" value="&lt;span style=&quot;font-size: 6px;&quot;&gt;Multiply Layer werden benutzt um die verschiedenen Embeddings und Informationen zu kombinieren&lt;/span&gt;" style="text;html=1;align=center;verticalAlign=middle;whiteSpace=wrap;rounded=0;fontColor=#007FFF;" vertex="1" parent="1">
          <mxGeometry x="310" y="590" width="160" height="30" as="geometry" />
        </mxCell>
        <mxCell id="P2-b-sgp65ouoSlKTeRA-18" value="&lt;span style=&quot;font-size: 6px;&quot;&gt;Id der Artikel&lt;/span&gt;" style="text;html=1;align=center;verticalAlign=middle;whiteSpace=wrap;rounded=0;fontColor=#007FFF;" vertex="1" parent="1">
          <mxGeometry x="262" y="304" width="160" height="30" as="geometry" />
        </mxCell>
      </root>
    </mxGraphModel>
  </diagram>
</mxfile>
